<svg width="17" height="19" viewBox="0 0 17 19" fill="none" xmlns="http://www.w3.org/2000/svg">
<path d="M3.83127 18.0769C3.28127 18.0769 2.81043 17.8811 2.41877 17.4894C2.0271 17.0978 1.83127 16.6269 1.83127 16.0769V3.07693C1.54793 3.07693 1.31043 2.9811 1.11877 2.78943C0.927102 2.59777 0.831268 2.36027 0.831268 2.07693C0.831268 1.7936 0.927102 1.5561 1.11877 1.36443C1.31043 1.17277 1.54793 1.07693 1.83127 1.07693H5.83127C5.83127 0.793601 5.9271 0.556101 6.11877 0.364435C6.31043 0.172768 6.54793 0.0769348 6.83127 0.0769348H10.8313C11.1146 0.0769348 11.3521 0.172768 11.5438 0.364435C11.7354 0.556101 11.8313 0.793601 11.8313 1.07693H15.8313C16.1146 1.07693 16.3521 1.17277 16.5438 1.36443C16.7354 1.5561 16.8313 1.7936 16.8313 2.07693C16.8313 2.36027 16.7354 2.59777 16.5438 2.78943C16.3521 2.9811 16.1146 3.07693 15.8313 3.07693V16.0769C15.8313 16.6269 15.6354 17.0978 15.2438 17.4894C14.8521 17.8811 14.3813 18.0769 13.8313 18.0769H3.83127ZM13.8313 3.07693H3.83127V16.0769H13.8313V3.07693ZM6.83127 14.0769C7.1146 14.0769 7.3521 13.9811 7.54377 13.7894C7.73544 13.5978 7.83127 13.3603 7.83127 13.0769V6.07693C7.83127 5.7936 7.73544 5.5561 7.54377 5.36443C7.3521 5.17277 7.1146 5.07693 6.83127 5.07693C6.54793 5.07693 6.31043 5.17277 6.11877 5.36443C5.9271 5.5561 5.83127 5.7936 5.83127 6.07693V13.0769C5.83127 13.3603 5.9271 13.5978 6.11877 13.7894C6.31043 13.9811 6.54793 14.0769 6.83127 14.0769ZM10.8313 14.0769C11.1146 14.0769 11.3521 13.9811 11.5438 13.7894C11.7354 13.5978 11.8313 13.3603 11.8313 13.0769V6.07693C11.8313 5.7936 11.7354 5.5561 11.5438 5.36443C11.3521 5.17277 11.1146 5.07693 10.8313 5.07693C10.5479 5.07693 10.3104 5.17277 10.1188 5.36443C9.9271 5.5561 9.83127 5.7936 9.83127 6.07693V13.0769C9.83127 13.3603 9.9271 13.5978 10.1188 13.7894C10.3104 13.9811 10.5479 14.0769 10.8313 14.0769Z" fill="white"/>
</svg>
