<svg width="19" height="19" viewBox="0 0 19 19" fill="none" xmlns="http://www.w3.org/2000/svg">
<path d="M10.6527 18.3929C10.3694 18.3929 10.1319 18.297 9.94023 18.1054C9.74856 17.9137 9.65273 17.6762 9.65273 17.3929C9.65273 17.1095 9.74856 16.872 9.94023 16.6804C10.1319 16.4887 10.3694 16.3929 10.6527 16.3929H16.6527V2.39285H10.6527C10.3694 2.39285 10.1319 2.29702 9.94023 2.10535C9.74856 1.91369 9.65273 1.67619 9.65273 1.39285C9.65273 1.10952 9.74856 0.872019 9.94023 0.680353C10.1319 0.488686 10.3694 0.392853 10.6527 0.392853H16.6527C17.2027 0.392853 17.6736 0.588686 18.0652 0.980353C18.4569 1.37202 18.6527 1.84285 18.6527 2.39285V16.3929C18.6527 16.9429 18.4569 17.4137 18.0652 17.8054C17.6736 18.197 17.2027 18.3929 16.6527 18.3929H10.6527ZM8.82773 10.3929H1.65273C1.36939 10.3929 1.13189 10.297 0.940225 10.1054C0.748559 9.91369 0.652725 9.67619 0.652725 9.39285C0.652725 9.10952 0.748559 8.87202 0.940225 8.68035C1.13189 8.48869 1.36939 8.39285 1.65273 8.39285H8.82773L6.95273 6.51785C6.76939 6.33452 6.67773 6.10952 6.67773 5.84285C6.67773 5.57619 6.76939 5.34285 6.95273 5.14285C7.13606 4.94285 7.36939 4.83869 7.65273 4.83035C7.93606 4.82202 8.17773 4.91785 8.37773 5.11785L11.9527 8.69285C12.1527 8.89285 12.2527 9.12619 12.2527 9.39285C12.2527 9.65952 12.1527 9.89285 11.9527 10.0929L8.37773 13.6679C8.17773 13.8679 7.94023 13.9637 7.66523 13.9554C7.39023 13.947 7.15273 13.8429 6.95273 13.6429C6.76939 13.4429 6.68189 13.2054 6.69023 12.9304C6.69856 12.6554 6.79439 12.4262 6.97773 12.2429L8.82773 10.3929Z" fill="white"/>
</svg>
