<svg width="60" height="61" viewBox="0 0 60 61" fill="none" xmlns="http://www.w3.org/2000/svg">
<rect width="60" height="61" rx="24" fill="#F1F6F6"/>
<path d="M28.625 44.4219V31.5781L17.375 25.0625V37.9063L28.625 44.4219ZM32.375 44.4219L43.625 37.9063V25.0625L32.375 31.5781V44.4219ZM30.5 28.3438L41.6094 21.9219L30.5 15.5L19.3906 21.9219L30.5 28.3438ZM15.5 41.1875C14.9062 40.8438 14.4453 40.3906 14.1172 39.8281C13.7891 39.2656 13.625 38.6406 13.625 37.9531V23.0469C13.625 22.3594 13.7891 21.7344 14.1172 21.1719C14.4453 20.6094 14.9062 20.1563 15.5 19.8125L28.625 12.2656C29.2188 11.9219 29.8438 11.75 30.5 11.75C31.1562 11.75 31.7812 11.9219 32.375 12.2656L45.5 19.8125C46.0938 20.1563 46.5547 20.6094 46.8828 21.1719C47.2109 21.7344 47.375 22.3594 47.375 23.0469V37.9531C47.375 38.6406 47.2109 39.2656 46.8828 39.8281C46.5547 40.3906 46.0938 40.8438 45.5 41.1875L32.375 48.7344C31.7812 49.0781 31.1562 49.25 30.5 49.25C29.8438 49.25 29.2188 49.0781 28.625 48.7344L15.5 41.1875Z" fill="#1C1B1F"/>
</svg>
