<svg width="19" height="19" viewBox="0 0 19 19" fill="none" xmlns="http://www.w3.org/2000/svg">
<path d="M2.175 18C1.825 18.0833 1.52083 17.9958 1.2625 17.7375C1.00417 17.4792 0.916667 17.175 1 16.825L2 12.05L6.95 17L2.175 18ZM6.95 17L2 12.05L13.45 0.600002C13.8333 0.216668 14.3083 0.0250015 14.875 0.0250015C15.4417 0.0250015 15.9167 0.216668 16.3 0.600002L18.4 2.7C18.7833 3.08333 18.975 3.55833 18.975 4.125C18.975 4.69167 18.7833 5.16667 18.4 5.55L6.95 17ZM14.875 2L4.525 12.35L6.65 14.475L17 4.125L14.875 2Z" fill="black"/>
</svg>
