<svg width="65" height="63" viewBox="0 0 65 63" fill="none" xmlns="http://www.w3.org/2000/svg">
<path d="M31 32.6719V19.8281L19.75 13.3125V26.1563L31 32.6719ZM34.75 32.6719L46 26.1563V13.3125L34.75 19.8281V32.6719ZM32.875 16.5938L43.9844 10.1719L32.875 3.75L21.7656 10.1719L32.875 16.5938ZM17.875 29.4375C17.2812 29.0938 16.8203 28.6406 16.4922 28.0781C16.1641 27.5156 16 26.8906 16 26.2031V11.2969C16 10.6094 16.1641 9.98438 16.4922 9.42188C16.8203 8.85938 17.2812 8.40625 17.875 8.0625L31 0.515625C31.5938 0.171875 32.2188 0 32.875 0C33.5312 0 34.1562 0.171875 34.75 0.515625L47.875 8.0625C48.4688 8.40625 48.9297 8.85938 49.2578 9.42188C49.5859 9.98438 49.75 10.6094 49.75 11.2969V26.2031C49.75 26.8906 49.5859 27.5156 49.2578 28.0781C48.9297 28.6406 48.4688 29.0938 47.875 29.4375L34.75 36.9844C34.1562 37.3281 33.5312 37.5 32.875 37.5C32.2188 37.5 31.5938 37.3281 31 36.9844L17.875 29.4375Z" fill="#1C1B1F"/>
<path d="M46 57.6719V44.8281L34.75 38.3125V51.1563L46 57.6719ZM49.75 57.6719L61 51.1563V38.3125L49.75 44.8281V57.6719ZM47.875 41.5938L58.9844 35.1719L47.875 28.75L36.7656 35.1719L47.875 41.5938ZM32.875 54.4375C32.2812 54.0938 31.8203 53.6406 31.4922 53.0781C31.1641 52.5156 31 51.8906 31 51.2031V36.2969C31 35.6094 31.1641 34.9844 31.4922 34.4219C31.8203 33.8594 32.2812 33.4063 32.875 33.0625L46 25.5156C46.5938 25.1719 47.2188 25 47.875 25C48.5312 25 49.1562 25.1719 49.75 25.5156L62.875 33.0625C63.4688 33.4063 63.9297 33.8594 64.2578 34.4219C64.5859 34.9844 64.75 35.6094 64.75 36.2969V51.2031C64.75 51.8906 64.5859 52.5156 64.2578 53.0781C63.9297 53.6406 63.4688 54.0938 62.875 54.4375L49.75 61.9844C49.1562 62.3281 48.5312 62.5 47.875 62.5C47.2188 62.5 46.5938 62.3281 46 61.9844L32.875 54.4375Z" fill="#1C1B1F"/>
<path d="M15.625 57.4219V44.5781L4.375 38.0625V50.9063L15.625 57.4219ZM19.375 57.4219L30.625 50.9063V38.0625L19.375 44.5781V57.4219ZM17.5 41.3438L28.6094 34.9219L17.5 28.5L6.39062 34.9219L17.5 41.3438ZM2.5 54.1875C1.90625 53.8438 1.44531 53.3906 1.11719 52.8281C0.789063 52.2656 0.625 51.6406 0.625 50.9531V36.0469C0.625 35.3594 0.789063 34.7344 1.11719 34.1719C1.44531 33.6094 1.90625 33.1563 2.5 32.8125L15.625 25.2656C16.2188 24.9219 16.8438 24.75 17.5 24.75C18.1562 24.75 18.7812 24.9219 19.375 25.2656L32.5 32.8125C33.0938 33.1563 33.5547 33.6094 33.8828 34.1719C34.2109 34.7344 34.375 35.3594 34.375 36.0469V50.9531C34.375 51.6406 34.2109 52.2656 33.8828 52.8281C33.5547 53.3906 33.0938 53.8438 32.5 54.1875L19.375 61.7344C18.7812 62.0781 18.1562 62.25 17.5 62.25C16.8438 62.25 16.2188 62.0781 15.625 61.7344L2.5 54.1875Z" fill="#1C1B1F"/>
</svg>
