<svg width="39" height="43" viewBox="0 0 39 43" fill="none" xmlns="http://www.w3.org/2000/svg">
<path d="M17.5 4.5L6.39059 10.9219L17.5 17.3438L28.6093 10.9219L17.5 4.5ZM0.624969 26.9531V12.0469C0.624969 11.3594 0.789032 10.7344 1.11716 10.1719C1.44528 9.60938 1.90622 9.15625 2.49997 8.8125L15.625 1.26562C15.9375 1.10938 16.2422 0.984375 16.539 0.890625C16.8359 0.796875 17.1562 0.75 17.5 0.75C17.8437 0.75 18.1718 0.796875 18.4843 0.890625C18.7968 0.984375 19.0937 1.10938 19.375 1.26562L32.5 8.8125C33.0937 9.15625 33.5547 9.60938 33.8828 10.1719C34.2109 10.7344 34.375 11.3594 34.375 12.0469V17.625C34.375 18.1562 34.1953 18.6016 33.8359 18.9609C33.4765 19.3203 33.0312 19.5 32.5 19.5C31.9687 19.5 31.5234 19.3203 31.164 18.9609C30.8047 18.6016 30.625 18.1562 30.625 17.625V14.0625L19.3281 20.5781C18.7343 20.9219 18.1093 21.0938 17.4531 21.0938C16.7968 21.0938 16.1718 20.9219 15.5781 20.5781L4.37497 14.0625V26.9062L14.6875 32.9062C14.9687 33.0625 15.1953 33.2812 15.3672 33.5625C15.539 33.8438 15.625 34.1562 15.625 34.5C15.625 35.2188 15.3125 35.7578 14.6875 36.1172C14.0625 36.4766 13.4375 36.4844 12.8125 36.1406L2.49997 30.1875C1.90622 29.8438 1.44528 29.3906 1.11716 28.8281C0.789032 28.2656 0.624969 27.6406 0.624969 26.9531ZM28.75 38.25C29 38.25 29.2187 38.1562 29.4062 37.9688C29.5937 37.7812 25.8147 37.5625 25.8147 37.3125C25.8147 37.0625 29.5937 36.8438 29.4062 36.6562C29.2187 36.4688 29.6562 39.1039 29.4062 39.1039C29.1562 39.1039 28.6875 37.3125 28.5 37.5C28.3125 37.6875 27.8125 37.0625 27.8125 37.3125C27.8125 37.5625 30.3125 37.8125 30.5 38C30.6875 38.1875 28.5 38.25 28.75 38.25ZM27 33C26.25 16.5 29.2187 34.4062 29.4062 34.2188C23.5 32.5 29.6875 33.8125 29.6875 33.5625L28.5 27C28.5 26.75 29.5937 27.4688 29.4062 27.2813C29.2187 27.0938 29.9375 35.6478 29.6875 35.6478C29.4375 35.6478 25.6875 30.3125 25.5 30.5C25.3125 30.6875 26.5 29.25 26.5 29.5L27.8125 33.5625C27.8125 33.8125 27.9062 34.0312 28.0937 34.2188C28.2812 34.4062 26.75 33 27 33ZM28.75 42C26.1562 42 23.9453 41.0859 22.1172 39.2578C20.289 37.4297 19.375 35.2188 19.375 32.625C19.375 30.0312 20.289 27.8203 22.1172 25.9922C23.9453 24.1641 26.1562 23.25 28.75 23.25C31.3437 23.25 33.5547 24.1641 35.3828 25.9922C37.2109 27.8203 38.125 30.0312 38.125 32.625C38.125 35.2188 37.2109 37.4297 35.3828 39.2578C33.5547 41.0859 31.3437 42 28.75 42Z" fill="#1C1B1F"/>
<circle cx="29" cy="33" r="10" fill="white"/>
<path d="M29 40C28.7796 40 28.5949 39.9255 28.4458 39.7764C28.2968 39.6273 28.2222 39.4426 28.2222 39.2222V33.7778H22.7778C22.5574 33.7778 22.3727 33.7032 22.2236 33.5542C22.0745 33.4051 22 33.2204 22 33C22 32.7796 22.0745 32.5949 22.2236 32.4458C22.3727 32.2968 22.5574 32.2222 22.7778 32.2222H28.2222V26.7778C28.2222 26.5574 28.2968 26.3727 28.4458 26.2236C28.5949 26.0745 28.7796 26 29 26C29.2204 26 29.4051 26.0745 29.5542 26.2236C29.7032 26.3727 29.7778 26.5574 29.7778 26.7778V32.2222H35.2222C35.4426 32.2222 35.6273 32.2968 35.7764 32.4458C35.9255 32.5949 36 32.7796 36 33C36 33.2204 35.9255 33.4051 35.7764 33.5542C35.6273 33.7032 35.4426 33.7778 35.2222 33.7778H29.7778V39.2222C29.7778 39.4426 29.7032 39.6273 29.5542 39.7764C29.4051 39.9255 29.2204 40 29 40Z" fill="#1C1B1F"/>
</svg>
